<?xml version="1.0" encoding="UTF-8" standalone="no"?>
<!-- Created with Inkscape (http://www.inkscape.org/) -->

<svg
   width="600mm"
   height="400mm"
   viewBox="0 0 600 400"
   version="1.1"
   id="svg19"
   sodipodi:docname="Controle.svg"
   inkscape:version="1.2-alpha1 (unknown)"
   xmlns:inkscape="http://www.inkscape.org/namespaces/inkscape"
   xmlns:sodipodi="http://sodipodi.sourceforge.net/DTD/sodipodi-0.dtd"
   xmlns="http://www.w3.org/2000/svg"
   xmlns:svg="http://www.w3.org/2000/svg">
  <sodipodi:namedview
     id="namedview21"
     pagecolor="#ffffff"
     bordercolor="#999999"
     borderopacity="1"
     inkscape:pageshadow="0"
     inkscape:pageopacity="0"
     inkscape:pagecheckerboard="0"
     inkscape:deskcolor="#d1d1d1"
     inkscape:document-units="mm"
     showgrid="false"
     inkscape:zoom="0.76145088"
     inkscape:cx="118.85205"
     inkscape:cy="760.39048"
     inkscape:window-width="1920"
     inkscape:window-height="1009"
     inkscape:window-x="-8"
     inkscape:window-y="-8"
     inkscape:window-maximized="1"
     inkscape:current-layer="layer1" />
  <defs
     id="defs16">
    <rect
       x="261.34319"
       y="281.04242"
       width="260.02991"
       height="18.385953"
       id="rect16306" />
    <rect
       x="232.45098"
       y="299.42838"
       width="106.37587"
       height="17.072671"
       id="rect15837" />
    <rect
       x="204.87205"
       y="214.06502"
       width="127.38839"
       height="24.952365"
       id="rect9845" />
  </defs>
  <g
     inkscape:label="CORTE"
     inkscape:groupmode="layer"
     id="layer1"
     inkscape:power="50"
     inkscape:feed="50"
     inkscape:engrave="0"
     inkscape:highlight-color="#e13535">
    <path
       style="fill:#000000;stroke-width:0.294494"
       d="M 33.442975,120.37221 C 28.944539,119.58313 24.886978,118.36 22.004025,116.92402 9.3255737,110.60894 1.1184525,98.649955 -0.18808481,84.586887 -1.0887562,74.892505 1.8588705,64.761562 7.8642926,56.910935 12.160592,51.294564 19.262324,46.192302 26.110317,43.802026 c 5.384907,-1.879598 5.074578,-1.854397 25.077692,-2.036133 l 18.331652,-0.16654 0.1725,-7.983547 c 0.178259,-8.250218 0.385505,-9.868831 1.703637,-13.305911 1.616479,-4.215056 4.716079,-8.242776 8.717258,-11.3274892 2.436914,-1.878736 15.48466,-8.05105883 17.462508,-8.26075723 4.501506,-0.4772415 6.766116,5.56533283 3.108216,8.29355763 -0.52446,0.391156 -3.856217,2.0695808 -7.403895,3.7298228 -3.547701,1.660254 -7.145132,3.547461 -7.994323,4.193811 -1.859575,1.415387 -3.732763,3.725857 -4.650829,5.736543 -1.384392,3.031999 -1.582613,4.538108 -1.582613,12.025124 v 7.022047 l 18.698286,0.10359 c 20.453114,0.11339 20.010014,0.079 25.444334,1.975818 6.84799,2.390276 13.94972,7.492539 18.24602,13.108909 6.00542,7.850627 8.95305,17.98157 8.05238,27.675952 -1.56318,16.825487 -13.27243,30.769477 -29.33112,34.929047 -10.26124,2.65788 -9.29639,-8.40115 -8.93054,7.87581 0.0616,2.74239 -6.71079,2.41749 -9.5329,2.50281 l -10.740009,0.32472 H 81.30767 l -13.473096,1e-5 -9.10021,0.31027 c -7.816413,0.26651 -20.664042,1.18052 -20.948544,-2.64117 -0.969063,-13.01729 -1.945763,-7.09579 -4.342845,-7.51619 z m 10.298696,-9.56156 c 6.478865,-1.14947 11.889811,-4.05531 16.765766,-9.0037 1.45769,-1.47936 3.00147,-2.82432 3.430603,-2.988803 0.47055,-0.18036 4.742474,-0.29907 10.762573,-0.29907 11.447331,0 11.128232,-0.0616 13.364075,2.576793 3.384178,3.99337 9.659489,7.8528 15.038552,9.24898 5.05932,1.31317 11.85366,1.06069 16.78934,-0.6239 9.41251,-3.2126 16.90933,-11.336281 19.47861,-21.107382 0.6762,-2.571679 0.7775,-3.534654 0.7775,-7.39217 0,-3.858611 -0.1012,-4.819766 -0.778,-7.39217 -2.78003,-10.566344 -10.24465,-18.30802 -20.86889,-21.643469 l -2.63973,-0.82873 H 74.652524 33.442975 l -2.639758,0.82873 C 20.178969,55.521208 12.714351,63.262884 9.9343284,73.829228 c -0.6768088,2.572404 -0.7779648,3.533559 -0.7779648,7.39217 0,3.857516 0.101322,4.820491 0.7774988,7.39217 2.9860036,11.355942 12.3170386,20.097742 23.6604866,22.166372 2.933569,0.535 7.231776,0.548 10.147322,0.031 z m 58.118719,-10.35619 c -6.767035,-2.613784 -8.735637,-11.095549 -3.74335,-16.128344 1.92379,-1.939419 4.05683,-2.808566 6.89269,-2.808566 1.91525,0 2.64292,0.14094 3.95964,0.76688 1.94982,0.9269 3.7126,2.650979 4.6968,4.593729 0.6256,1.234799 0.7294,1.839555 0.7294,4.24875 0,2.384084 -0.1089,3.031977 -0.7193,4.282779 -0.8906,1.824513 -2.69205,3.620405 -4.58493,4.570708 -1.78107,0.894164 -5.51029,1.138664 -7.23087,0.474074 z M 34.718217,99.696535 c -0.589166,-0.313787 -1.381087,-1.072999 -1.759838,-1.687131 -0.649261,-1.052772 -0.694357,-1.441949 -0.78894,-6.808569 l -0.10032,-5.691975 h -5.41374 c -5.927547,0 -6.45032,-0.11791 -7.825012,-1.764913 -1.694145,-2.029707 -1.093971,-5.425571 1.214659,-6.872785 1.005974,-0.63061 1.449542,-0.68298 6.546866,-0.77298 l 5.467782,-0.0966 0.10598,-5.396727 c 0.10165,-5.178948 0.13554,-5.440725 0.8383,-6.48688 0.79927,-1.189819 2.656464,-2.264137 3.914058,-2.264137 1.171293,0 2.565684,0.68712 3.564308,1.756397 l 0.87992,0.94217 0.0906,5.72482 0.0906,5.724808 5.628933,0.0963 c 5.006676,0.0857 5.736551,0.16169 6.602437,0.68769 2.108114,1.280679 2.866169,3.889694 1.756191,6.044344 -1.243693,2.414202 -1.53428,2.510256 -8.102906,2.678493 l -5.772424,0.14784 -0.14666,5.913741 c -0.16427,6.624096 -0.24463,6.904983 -2.310437,8.075456 -1.402272,0.794523 -3.048627,0.813123 -4.480243,0.0506 z M 118.20852,81.842693 c -4.23617,-1.350602 -6.93734,-4.916312 -6.96649,-9.19622 -0.016,-2.278889 0.4225,-3.823989 1.58616,-5.595026 1.92594,-2.931251 5.16756,-4.500492 8.76126,-4.241275 7.52369,0.54269 11.43917,9.222684 6.98246,15.478923 -2.25038,3.159022 -6.75559,4.703853 -10.36339,3.553598 z"
       id="path4000"
       sodipodi:nodetypes="scsssscssscsssssccsssssscccsssscssscssssssccccssccccsssscscssscsscscscccssscccccsscssccsccsss"
       inkscape:power="50"
       inkscape:feed="50"
       inkscape:engrave="0" />
    <rect
       style="fill:#ffffff;stroke-width:0.263426"
       id="rect34489"
       inkscape:power="50"
       inkscape:feed="50"
       inkscape:engrave="0"
       width="3.9824917"
       x="-201.80792"
       y="39.940262"
       height="73.676094"
       transform="rotate(-89.634528)" />
  </g>
  <g
     inkscape:groupmode="layer"
     id="layer2"
     inkscape:power="50"
     inkscape:feed="50"
     inkscape:engrave="2"
     inkscape:label="CONTORNO" />
  <g
     inkscape:groupmode="layer"
     id="layer3"
     inkscape:power="50"
     inkscape:feed="50"
     inkscape:engrave="1"
     inkscape:label="PREENCHIMENTO"
     inkscape:highlight-color="#818181">
    <text
       xml:space="preserve"
       transform="matrix(0.26458333,0,0,0.26458333,5.2120893,0.69494524)"
       id="text9843"
       style="font-size:16px;white-space:pre;shape-inside:url(#rect9845);shape-padding:-6.56641;fill:#000000"
       inkscape:power="50"
       inkscape:feed="50"
       inkscape:engrave="0"><tspan
         x="200.46979"
         y="222.09533"
         id="tspan45823">Daniel e Ricardo
</tspan></text>
    <text
       xml:space="preserve"
       transform="matrix(0.26458333,0,0,0.26458333,-22.238248,-11.119124)"
       id="text16304"
       style="font-size:16px;white-space:pre;shape-inside:url(#rect16306);fill:#000000"
       inkscape:power="50"
       inkscape:feed="50"
       inkscape:engrave="0"><tspan
         x="261.34375"
         y="295.64025"
         id="tspan45825">Carro controlado por Wifi</tspan></text>
    <rect
       style="fill:#501616;stroke-width:0.264583"
       id="rect32647"
       inkscape:power="50"
       inkscape:feed="50"
       inkscape:engrave="0"
       width="150"
       height="120"
       x="1.0424175"
       y="142.46376" />
    <rect
       style="display:inline;fill:#ffffff;stroke-width:0.264583"
       id="rect32959"
       inkscape:power="50"
       inkscape:feed="50"
       inkscape:engrave="0"
       width="40"
       x="55.943092"
       y="200.83917"
       height="0" />
  </g>
</svg>
